<svg width="405" height="328" viewBox="0 0 405 328" fill="none" xmlns="http://www.w3.org/2000/svg">
<path d="M113.137 283.463C99.983 283.463 89.3184 271.988 89.3184 257.834C89.3184 243.681 99.983 232.205 113.137 232.205C149.251 232.205 178.637 200.585 178.637 161.725C178.637 147.572 189.302 136.096 202.455 136.096C215.609 136.096 226.273 147.572 226.273 161.725C226.273 228.854 175.523 283.463 113.137 283.463Z" fill="url(#paint0_linear_347_12)"/>
<path d="M291.863 39.9877C278.71 39.9877 268.045 51.463 268.045 65.6167C268.045 79.7703 278.71 91.2457 291.863 91.2457C327.978 91.2457 357.363 122.865 357.363 161.725C357.363 200.585 327.978 232.205 291.863 232.205C255.749 232.205 226.363 200.585 226.363 161.706L226.274 25.6098C226.262 11.4626 215.603 0 202.455 0H202.437C189.284 0.0128145 178.625 11.4946 178.637 25.6482L178.661 62.5412C160.16 48.3491 137.539 39.9941 113.137 39.9941C50.7508 39.9877 0 94.6031 0 161.725V302.371C0 316.525 10.6646 328 23.8183 328C36.9719 328 47.6365 316.525 47.6365 302.371V161.725C47.6365 122.865 77.0223 91.2457 113.137 91.2457C149.251 91.2457 178.637 122.865 178.637 161.725C178.637 162.597 178.679 163.462 178.756 164.314C180.042 230.251 230.281 283.463 291.863 283.463C353.445 283.463 405 228.854 405 161.725C405 94.5967 354.249 39.9877 291.863 39.9877Z" fill="url(#paint1_linear_347_12)"/>
<defs>
<linearGradient id="paint0_linear_347_12" x1="89.3184" y1="209.78" x2="226.273" y2="209.78" gradientUnits="userSpaceOnUse">
<stop stop-color="white"/>
<stop offset="1"/>
</linearGradient>
<linearGradient id="paint1_linear_347_12" x1="-6.56501" y1="320.128" x2="383.362" y2="224.214" gradientUnits="userSpaceOnUse">
<stop/>
<stop offset="1" stop-color="white"/>
</linearGradient>
</defs>
</svg>
