<svg width="681" height="512" viewBox="0 0 681 512" fill="none" xmlns="http://www.w3.org/2000/svg">
<path d="M190 442.41C167.91 442.41 150 424.5 150 402.41C150 380.32 167.91 362.41 190 362.41C250.65 362.41 300 313.06 300 252.41C300 230.32 317.91 212.41 340 212.41C362.09 212.41 380 230.32 380 252.41C380 357.18 294.77 442.41 190 442.41Z" fill="url(#paint0_linear_189_74)"/>
<path d="M490.15 62.41C468.06 62.41 450.15 80.32 450.15 102.41C450.15 124.5 468.06 142.41 490.15 142.41C550.8 142.41 600.15 191.76 600.15 252.41C600.15 313.06 550.8 362.41 490.15 362.41C429.5 362.41 380.15 313.06 380.15 252.38L380 39.97C379.98 17.89 362.08 0 340 0H339.97C317.88 0.02 299.98 17.94 300 40.03L300.04 97.61C268.97 75.46 230.98 62.42 190 62.42C85.23 62.41 0 147.65 0 252.41V471.92C0 494.01 17.91 511.92 40 511.92C62.09 511.92 80 494.01 80 471.92V252.41C80 191.76 129.35 142.41 190 142.41C250.65 142.41 300 191.76 300 252.41C300 253.77 300.07 255.12 300.2 256.45C302.36 359.36 386.73 442.41 490.15 442.41C593.57 442.41 680.15 357.18 680.15 252.41C680.15 147.64 594.92 62.41 490.15 62.41Z" fill="url(#paint1_linear_189_74)"/>
<defs>
<linearGradient id="paint0_linear_189_74" x1="150" y1="327.41" x2="380" y2="327.41" gradientUnits="userSpaceOnUse">
<stop stop-color="#F2C216"/>
<stop offset="1" stop-color="#F17146"/>
</linearGradient>
<linearGradient id="paint1_linear_189_74" x1="13.6" y1="255.96" x2="656.14" y2="255.96" gradientUnits="userSpaceOnUse">
<stop stop-color="#F17146"/>
<stop offset="1" stop-color="#F2C216"/>
</linearGradient>
</defs>
</svg>
